<svg xmlns="http://www.w3.org/2000/svg" version="1.1" xmlns:xlink="http://www.w3.org/1999/xlink" xmlns:svgjs="http://svgjs.dev/svgjs" width="1000" height="1000" viewBox="0 0 1000 1000"><rect width="1000" height="1000" fill="#000000"></rect><g transform="matrix(0.7,0,0,0.7,149.57575757575756,454.58710769604437)"><svg viewBox="0 0 396 52" data-background-color="#ffffff" preserveAspectRatio="xMidYMid meet" height="131" width="1000" xmlns="http://www.w3.org/2000/svg" xmlns:xlink="http://www.w3.org/1999/xlink"><defs></defs><g id="tight-bounds" transform="matrix(1,0,0,1,0.2400000000000091,-0.24786914061400012)"><svg viewBox="0 0 395.52 52.49573828122802" height="52.49573828122802" width="395.52"><g><svg viewBox="0 0 479.21244932899333 63.603891891891884" height="52.49573828122802" width="395.52"><g><rect width="4.7798871750227026" height="63.603891891891884" x="66.39976850207873" y="0" fill="#ffffff" opacity="1" stroke-width="0" stroke="transparent" fill-opacity="1" class="rect-o-0" data-fill-palette-color="primary" rx="1%" id="o-0" data-palette-color="#1e55b3"></rect></g><g transform="matrix(1,0,0,1,83.69244932899333,5.300324324324322)"><svg viewBox="0 0 395.52 53.00324324324324" height="53.00324324324324" width="395.52"><g><svg viewBox="0 0 395.52 53.00324324324324" height="53.00324324324324" width="395.52"><g><svg viewBox="0 0 395.52 53.00324324324324" height="53.00324324324324" width="395.52"><g transform="matrix(1,0,0,1,0,0)"><svg width="395.52" viewBox="2.5 -35.04999923706055 266.3800048828125 35.70000076293945" height="53.00324324324324" data-palette-color="#1e55b3"><path d="M15.65-35.05Q18.35-35.05 20.35-34.23 22.35-33.4 24.3-31.65L24.3-31.65 21.9-28.85Q20.45-30.1 19.03-30.7 17.6-31.3 15.9-31.3L15.9-31.3Q12-31.3 9.7-27.98 7.4-24.65 7.4-17.25L7.4-17.25Q7.4-10.05 9.7-6.63 12-3.2 15.9-3.2L15.9-3.2Q17.85-3.2 19.25-3.9 20.65-4.6 22.3-5.95L22.3-5.95 24.65-3.2Q20.9 0.65 15.65 0.65L15.65 0.65Q11.8 0.65 8.83-1.35 5.85-3.35 4.17-7.38 2.5-11.4 2.5-17.25L2.5-17.25Q2.5-23.05 4.23-27.05 5.95-31.05 8.93-33.05 11.9-35.05 15.65-35.05L15.65-35.05ZM41.1-35.05Q47.25-35.05 50.77-30.53 54.3-26 54.3-17.2L54.3-17.2Q54.3-8.55 50.8-3.95 47.3 0.65 41.1 0.65L41.1 0.65Q34.95 0.65 31.42-3.88 27.9-8.4 27.9-17.15L27.9-17.15Q27.9-22.9 29.52-26.93 31.15-30.95 34.12-33 37.1-35.05 41.1-35.05L41.1-35.05ZM41.1-31.35Q32.8-31.35 32.8-17.15L32.8-17.15Q32.8-3.1 41.1-3.1L41.1-3.1Q45.2-3.1 47.3-6.45 49.4-9.8 49.4-17.2L49.4-17.2Q49.4-24.55 47.27-27.95 45.15-31.35 41.1-31.35L41.1-31.35ZM86.95-34.4L89.59 0 85.15 0 84.09-15.55Q83.4-26 83.34-29.95L83.34-29.95 76.75-3.9 72.4-3.9 65.5-29.95Q65.55-25.6 64.95-15.45L64.95-15.45 63.95 0 59.55 0 62.2-34.4 68.25-34.4 74.65-8.95 80.8-34.4 86.95-34.4ZM104.39-34.4Q110.59-34.4 113.84-31.75 117.09-29.1 117.09-23.8L117.09-23.8Q117.09-18.2 113.77-15.48 110.44-12.75 104.54-12.75L104.54-12.75 101.24-12.75 101.24 0 96.59 0 96.59-34.4 104.39-34.4ZM104.39-16.35Q108.34-16.35 110.29-18 112.24-19.65 112.24-23.75L112.24-23.75Q112.24-27.5 110.32-29.18 108.39-30.85 104.44-30.85L104.44-30.85 101.24-30.85 101.24-16.35 104.39-16.35ZM144.79 0L139.64 0 132.24-14.65 131.94-14.65 127.39-14.65 127.39 0 122.74 0 122.74-34.4 130.79-34.4Q143.09-34.4 143.09-24.7L143.09-24.7Q143.09-21.3 141.44-18.95 139.79-16.6 136.59-15.5L136.59-15.5 144.79 0ZM131.14-18.2Q134.74-18.2 136.49-19.78 138.24-21.35 138.24-24.7L138.24-24.7Q138.24-27.85 136.47-29.35 134.69-30.85 130.69-30.85L130.69-30.85 127.39-30.85 127.39-18.2 131.14-18.2ZM171.69 0L166.89 0 164.59-8.75 153.04-8.75 150.74 0 146.09 0 156.04-34.4 161.74-34.4 171.69 0ZM158.84-30.7L153.99-12.4 163.64-12.4 158.84-30.7ZM189.99-18.2Q197.49-16.9 197.49-9.7L197.49-9.7Q197.49-4.8 194.19-2.4 190.89 0 185.09 0L185.09 0 176.29 0 176.29-34.4 183.74-34.4Q189.69-34.4 192.89-32.2 196.09-30 196.09-25.75L196.09-25.75Q196.09-22.7 194.41-20.78 192.74-18.85 189.99-18.2L189.99-18.2ZM184.19-30.85L180.94-30.85 180.94-19.75 185.24-19.75Q188.14-19.75 189.76-21.23 191.39-22.7 191.39-25.35L191.39-25.35Q191.39-28.25 189.61-29.55 187.84-30.85 184.19-30.85L184.19-30.85ZM185.14-3.65Q188.79-3.65 190.74-5.08 192.69-6.5 192.69-9.8L192.69-9.8Q192.69-16.3 185.64-16.3L185.64-16.3 180.94-16.3 180.94-3.65 185.14-3.65ZM203.63-34.4L220.73-34.4 220.18-30.8 208.28-30.8 208.28-19.45 218.63-19.45 218.63-15.85 208.28-15.85 208.28-3.65 220.88-3.65 220.88 0 203.63 0 203.63-34.4ZM223.38-34.4L245.73-34.4 245.18-30.6 236.73-30.6 236.73 0 232.08 0 232.08-30.6 223.38-30.6 223.38-34.4ZM258.38-35.05Q261.43-35.05 263.7-34.05 265.98-33.05 267.98-31.05L267.98-31.05 265.63-28.4Q263.93-29.9 262.25-30.63 260.58-31.35 258.63-31.35L258.63-31.35Q256.13-31.35 254.6-29.98 253.08-28.6 253.08-26.35L253.08-26.35Q253.08-24.85 253.68-23.78 254.28-22.7 255.73-21.83 257.18-20.95 259.83-20.05L259.83-20.05Q262.88-18.95 264.83-17.7 266.78-16.45 267.83-14.5 268.88-12.55 268.88-9.6L268.88-9.6Q268.88-6.65 267.53-4.33 266.18-2 263.65-0.68 261.13 0.65 257.73 0.65L257.73 0.65Q251.48 0.65 247.08-3.85L247.08-3.85 249.53-6.5Q251.38-4.85 253.3-3.98 255.23-3.1 257.58-3.1L257.58-3.1Q260.53-3.1 262.3-4.78 264.08-6.45 264.08-9.4L264.08-9.4Q264.08-11.95 262.65-13.45 261.23-14.95 257.43-16.25L257.43-16.25Q252.58-17.95 250.45-20.2 248.33-22.45 248.33-26.05L248.33-26.05Q248.33-28.6 249.6-30.68 250.88-32.75 253.18-33.9 255.48-35.05 258.38-35.05L258.38-35.05Z" opacity="1" transform="matrix(1,0,0,1,0,0)" fill="#ffffff" class="undefined-text-0" data-fill-palette-color="primary" id="text-0"></path></svg></g></svg></g></svg></g></svg></g><g transform="matrix(1,0,0,1,0,4.333015135135131)"><svg viewBox="0 0 53.88697485018683 54.93786162162162" height="54.93786162162162" width="53.88697485018683"><g><svg xmlns="http://www.w3.org/2000/svg" xmlns:xlink="http://www.w3.org/1999/xlink" version="1.1" x="0" y="0" viewBox="1.5181818008422852 1 47.081817626953125 47.99999237060547" enable-background="new 0 0 50 50" xml:space="preserve" height="54.93786162162162" width="53.88697485018683" class="icon-icon-0" data-fill-palette-color="accent" id="icon-0"><g fill="#0074d9" data-fill-palette-color="accent"><path d="M17.1 7c-3.1 0-5.7 2.5-5.7 5.7 0 3.1 2.5 5.7 5.7 5.7 3.1 0 5.7-2.5 5.7-5.7C22.7 9.5 20.2 7 17.1 7zM17.6 16.5v0.8h-0.7v-0.8c-1-0.1-2-0.5-2.8-1.2l0.8-1c0.6 0.5 1.3 0.9 1.9 1v-2.2c-1.5-0.4-2.4-0.8-2.4-2.3 0-1.4 1.1-2.2 2.4-2.3V8h0.7v0.6c0.8 0.1 1.6 0.3 2.3 0.8l-0.7 1c-0.5-0.4-1-0.6-1.6-0.6v2.1h0c1.5 0.3 2.5 0.8 2.5 2.3C20.1 15.6 19 16.4 17.6 16.5z" fill="#ffffff" data-fill-palette-color="accent"></path><path d="M17.1 1C10.7 1 5.4 6.2 5.4 12.7c0 6.4 5.2 11.6 11.6 11.6 3.7 0 7.2-1.8 9.1-4.4 0.4-0.3 2.6-3.2 2.6-7.3C28.7 6.2 23.5 1 17.1 1zM19.7 2.6C21.5 3 23.2 4 24.5 5.4l-2.1 1.8c-0.9-0.8-2-1.5-3.2-1.8L19.7 2.6zM14.5 2.6L15 5.3c-1.2 0.3-2.3 1-3.2 1.8L9.7 5.4C11 4 12.6 3 14.5 2.6zM7.1 15.5c-0.3-0.9-0.4-1.8-0.4-2.8 0-1 0.1-1.9 0.4-2.8l2.6 1c-0.1 0.6-0.2 1.2-0.2 1.8s0.1 1.2 0.2 1.8L7.1 15.5zM14.5 22.7c-1.9-0.5-3.5-1.5-4.9-2.8l2.2-1.8c0.9 0.8 1.9 1.5 3.2 1.8L14.5 22.7zM17.1 19.1c-3.6 0-6.5-2.9-6.5-6.5s2.9-6.5 6.5-6.5 6.5 2.9 6.5 6.5S20.7 19.1 17.1 19.1zM19.7 22.7L19.2 20c1.2-0.4 2.3-1 3.2-1.8l2.1 1.8C23.2 21.3 21.5 22.3 19.7 22.7zM27.1 15.5l-2.6-1c0.1-0.6 0.2-1.2 0.2-1.8s-0.1-1.2-0.2-1.8l2.6-1c0.3 0.9 0.4 1.8 0.4 2.8C27.5 13.6 27.4 14.6 27.1 15.5z" fill="#ffffff" data-fill-palette-color="accent"></path><path d="M15.8 10.7c0 0.6 0.4 0.8 1.1 1V9.8C16.3 9.8 15.8 10.1 15.8 10.7z" fill="#ffffff" data-fill-palette-color="accent"></path><path d="M18.7 14.3c0-0.6-0.5-0.9-1.2-1.1v2C18.2 15.2 18.7 14.9 18.7 14.3z" fill="#ffffff" data-fill-palette-color="accent"></path><path d="M46.2 39.6c-1.9-7.6-8.8-13-16.7-13H22c-1.5 0-2.8 1.2-2.8 2.8 0 1.5 1.2 2.8 2.8 2.8h9.8c0.5 0 1 0.4 1 1 0 0.5-0.4 1-1 1H18.5c-2.4 0-4.6-1-6.2-2.8l-5.4-6c-1.2-1.3-3.2-1.4-4.4-0.2-1.2 1.1-1.3 3-0.3 4.3l6.6 7.8c3 3.5 7.4 5.6 12 5.6h6c3.4 0 6.1 2.7 6.1 6.1h15.7L46.2 39.6z" fill="#ffffff" data-fill-palette-color="accent"></path></g></svg></g></svg></g></svg></g></svg><rect width="395.52" height="52.49573828122802" fill="none" stroke="none" visibility="hidden"></rect></g></svg></g></svg>